<svg version="1.1" id="Layer_1" xmlns="http://www.w3.org/2000/svg" xmlns:xlink="http://www.w3.org/1999/xlink" x="0px" y="0px"
	 width="100%" viewBox="0 0 1024 1024" enable-background="new 0 0 1024 1024" xml:space="preserve">
<path fill="#041741" opacity="1.000000" stroke="none" 
	d="
M678.000000,1025.000000 
	C453.500000,1025.000000 229.500000,1024.989136 5.500043,1025.093506 
	C1.750792,1025.095215 0.905801,1024.249146 0.906913,1020.500000 
	C1.007246,682.166687 1.007246,343.833344 0.906913,5.500028 
	C0.905801,1.750903 1.750902,0.905800 5.500028,0.906912 
	C343.833344,1.007255 682.166687,1.007255 1020.500000,0.906912 
	C1024.249146,0.905800 1025.094360,1.750902 1025.093262,5.500027 
	C1024.992920,343.833344 1024.992798,682.166687 1025.093140,1020.500000 
	C1025.094238,1024.249146 1024.249512,1025.098389 1020.499878,1025.094604 
	C906.500000,1024.978760 792.500000,1025.000000 678.000000,1025.000000 
z"/>
<path fill="#FCFDFD" opacity="1.000000" stroke="none" 
	d="
M189.664291,645.256958 
	C194.023209,642.657898 198.272842,641.823303 202.883743,641.893616 
	C213.707275,642.058777 224.536362,641.860413 235.359863,642.026672 
	C238.124161,642.069153 239.451157,641.550049 240.044617,638.524231 
	C245.002274,613.246826 268.969849,601.048035 292.444489,611.774841 
	C295.006348,612.945496 296.351807,614.087585 297.167023,609.712524 
	C301.265228,587.718201 321.070251,570.578491 343.445587,569.056458 
	C365.702118,567.542419 386.280212,580.813721 393.854492,601.557617 
	C395.587646,606.304260 396.257111,611.239746 396.277710,616.249023 
	C396.288605,618.890625 396.843567,620.254822 399.961151,619.801392 
	C417.637604,617.229980 431.653656,630.932373 434.566101,645.392273 
	C435.417664,649.620117 436.780243,649.960815 440.331329,648.899597 
	C456.729523,643.999146 470.048676,649.125549 480.772766,661.889893 
	C486.374939,668.557983 488.836121,676.326233 487.946472,685.522095 
	C486.508118,687.979248 484.389496,688.341370 482.175049,688.272827 
	C446.104492,687.156982 410.025269,687.924561 373.950867,687.850098 
	C357.689880,687.816467 341.437653,687.128845 325.175262,687.411072 
	C323.367523,687.442566 321.539276,687.121948 319.459229,686.102051 
	C324.427032,675.674500 332.602631,670.199280 344.608459,670.141357 
	C351.279388,668.846008 357.595795,669.779053 363.881775,669.538818 
	C366.377380,669.443420 368.829132,669.305298 371.303589,668.840942 
	C374.132172,668.310242 376.781036,667.567688 376.773651,664.222534 
	C376.766754,661.085815 375.245056,658.449524 372.224670,657.051819 
	C370.865326,656.422791 369.351166,656.078308 367.861847,656.077698 
	C360.045380,656.074646 352.215912,655.590576 344.415741,656.321899 
	C337.915894,656.931213 331.464874,655.995911 324.988007,655.996460 
	C280.374756,656.000366 235.761459,656.025696 191.148422,655.929688 
	C188.569260,655.924133 184.821152,657.538208 183.655853,654.005188 
	C182.519119,650.558716 185.561890,648.313965 187.946381,646.218323 
	C188.316833,645.892761 188.810211,645.722046 189.664291,645.256958 
z"/>
<path fill="#FBFCFD" opacity="1.000000" stroke="none" 
	d="
M604.467896,689.220703 
	C601.121765,688.456299 601.267944,686.045898 601.099976,683.985535 
	C599.831482,668.428406 612.408447,654.468628 627.889465,654.414856 
	C645.876770,654.352478 663.865051,654.436279 681.852051,654.571716 
	C685.124329,654.596375 688.552734,654.245667 688.580505,650.518982 
	C688.606018,647.104492 685.102295,646.419250 682.145508,646.439392 
	C671.990112,646.508606 661.830505,646.555603 651.682983,646.911011 
	C647.422058,647.060181 646.812988,645.747192 647.506714,641.665039 
	C651.689636,617.051208 673.994263,592.938782 704.326172,589.585632 
	C735.462769,586.143555 769.890625,610.101624 773.980469,641.826477 
	C774.513000,645.957947 776.526001,647.175903 780.224792,646.853088 
	C782.720642,646.635193 785.078491,645.953918 787.449341,645.130249 
	C806.580322,638.483948 825.662476,646.683289 833.369507,665.387268 
	C835.502075,670.562805 838.651978,669.132446 842.073669,668.559082 
	C853.244141,666.687439 865.688110,672.824524 870.337280,682.857544 
	C871.122620,684.552551 873.577698,686.684875 870.294739,688.915283 
	C869.040222,689.619812 868.021423,689.485596 867.032715,689.485229 
	C779.661560,689.452454 692.290344,689.566223 604.467896,689.220703 
z"/>
<path fill="#FAFCFC" opacity="1.000000" stroke="none" 
	d="
M668.594971,426.802795 
	C668.148987,426.615387 667.997375,426.266022 668.221619,425.486389 
	C669.008728,424.940491 669.351196,424.721069 669.755920,424.102112 
	C669.897644,423.822327 669.930420,423.914154 669.884155,423.898743 
	C673.530640,421.934387 676.722839,419.511688 679.354919,416.119415 
	C681.984253,412.730713 685.377136,411.334045 690.230530,412.197388 
	C696.372986,413.290009 702.754211,412.097046 709.004517,411.583740 
	C711.076355,411.413544 712.901428,411.065063 714.746948,412.927490 
	C714.852722,413.459747 714.770447,413.627228 714.423340,413.885162 
	C713.829346,414.136505 713.565796,414.372498 713.201782,414.893372 
	C692.818237,436.466675 672.628906,457.855408 652.347107,479.156036 
	C644.543884,487.351227 644.479736,487.231049 651.950195,495.473114 
	C667.590637,512.728821 683.218018,529.996521 698.770386,547.331482 
	C700.120667,548.836548 702.396179,550.089111 701.303101,552.927551 
	C690.864380,553.988708 680.761841,553.306641 670.295959,553.108887 
	C653.070923,534.870178 636.190552,516.976135 620.003906,498.415131 
	C618.362793,499.431519 619.156738,500.905334 619.143005,502.080322 
	C618.947021,518.895813 618.825134,535.712158 618.327759,552.774109 
	C611.254028,554.050903 604.502258,553.283630 597.372437,553.144165 
	C595.494263,550.642822 596.550049,548.134521 596.066406,545.381348 
	C594.057922,542.869446 594.574768,540.263977 594.571655,537.818176 
	C594.533630,507.676971 594.559143,477.535767 594.541687,447.394562 
	C594.537720,440.474518 594.507812,440.512848 587.635498,440.484039 
	C575.148560,440.431732 562.662964,440.537140 550.179382,440.798035 
	C544.826416,440.909912 544.631348,441.202911 544.495544,446.522430 
	C543.735291,476.291534 544.093506,506.066681 544.006104,535.839355 
	C543.993896,539.997437 544.024475,544.154175 543.503479,548.756409 
	C543.344971,549.211365 543.164246,549.599304 543.239685,549.799561 
	C543.669861,550.179871 544.024719,550.359863 543.824219,550.758545 
	C543.002563,551.595215 542.736206,552.213318 542.232544,552.936890 
	C537.255615,555.888977 532.019958,553.942871 527.089722,554.150879 
	C523.963623,554.282837 520.115234,555.622314 517.017578,552.498291 
	C516.961182,551.835144 516.979248,551.661377 516.920288,551.237061 
	C516.225403,546.872559 515.993713,542.735107 515.995178,538.576050 
	C516.006104,507.780090 516.007263,476.984131 515.996521,446.188171 
	C515.994263,439.614929 515.727234,439.595825 509.193054,440.080109 
	C501.583160,440.644073 493.951324,441.184509 486.308228,440.252380 
	C482.975494,439.845978 481.898376,438.372131 482.246094,434.918823 
	C482.777374,429.642090 482.780853,424.307129 482.151520,418.992828 
	C481.880157,416.701416 481.670258,414.343384 482.842133,411.694153 
	C506.801392,411.230621 530.462952,411.131989 554.124634,411.092255 
	C574.289185,411.058411 594.454529,411.173645 614.617920,411.018921 
	C618.102966,410.992188 619.109375,411.957001 619.086792,415.461761 
	C618.966431,434.124847 619.072937,452.789764 619.201355,471.453400 
	C619.211670,472.952179 618.239380,474.797791 620.491943,475.985413 
	C625.349243,472.303772 630.179138,469.015289 632.721069,463.141418 
	C632.846130,462.812256 632.934204,462.942535 632.869751,462.897461 
	C634.437378,461.749176 635.951599,460.541412 636.823853,458.328247 
	C637.041321,458.085846 637.010498,458.016937 637.046509,458.028351 
	C640.082642,455.879272 643.983948,454.722260 645.471924,450.418274 
	C645.722290,449.439240 647.396423,450.739380 646.977539,448.948730 
	C653.517456,441.709045 660.299500,435.124451 666.973083,428.432831 
	C667.283081,428.122009 667.256531,427.502441 667.323730,426.700256 
	C667.521912,426.321838 667.804626,426.276123 668.209351,426.642273 
	C668.566101,426.923401 668.848633,426.842285 669.025574,426.660980 
	C669.121033,426.563141 668.932068,426.689087 668.594971,426.802795 
z"/>
<path fill="#F8FAFB" opacity="1.000000" stroke="none" 
	d="
M267.469147,700.246399 
	C263.069244,696.369019 263.141724,695.023743 267.693115,692.356018 
	C268.928680,691.183228 270.160797,691.504517 271.283722,691.526489 
	C319.498016,692.470398 367.674286,689.491333 415.888428,690.161011 
	C434.523499,690.419861 453.167023,690.364746 471.803192,690.149170 
	C485.258026,689.993469 498.603577,692.395569 512.524536,691.768555 
	C516.859314,692.915222 519.467896,691.682983 522.308960,688.557678 
	C542.053589,666.838379 576.478516,671.797729 589.504578,698.132568 
	C590.851685,700.855957 592.075500,702.185547 595.300354,702.025574 
	C604.615417,701.563660 611.953491,705.913574 616.619385,713.492615 
	C619.326355,717.889587 622.199585,718.200439 626.372070,717.572205 
	C636.998352,715.972229 645.614929,719.659851 652.325623,727.921631 
	C655.447876,731.765564 657.351624,736.109985 657.072754,741.618530 
	C654.347717,745.138916 650.610718,743.996704 647.636475,743.630127 
	C638.358582,742.486633 629.087585,743.552979 619.835693,742.998474 
	C618.842224,742.938904 617.841309,742.989929 616.431274,742.540527 
	C613.951477,742.285278 611.907227,742.219482 609.434204,742.250366 
	C604.584045,744.565552 599.818420,743.185242 595.279541,743.319885 
	C581.736328,743.721680 568.158203,744.142578 554.620422,743.000977 
	C550.998352,742.695496 547.375183,744.450256 543.393860,742.637146 
	C541.273315,742.341980 539.550293,742.273804 537.481628,742.321106 
	C534.164551,744.590210 530.782654,743.492920 527.660583,743.322449 
	C520.036194,742.906067 512.436707,743.010010 504.828644,743.413452 
	C503.165680,743.501648 501.502228,743.549744 499.844269,743.486328 
	C485.597015,742.941101 471.349609,744.085327 457.133759,743.781860 
	C445.723755,743.538269 434.251678,744.165771 422.431274,742.483643 
	C421.242065,742.212952 420.493195,742.153564 419.376801,742.182861 
	C411.149750,743.842773 403.155426,743.096863 395.247375,743.300598 
	C387.002441,743.513062 378.709351,742.959595 369.973419,743.179993 
	C368.904236,743.343994 368.291321,743.391357 367.235870,743.518677 
	C365.576019,743.864990 364.412689,743.680664 363.277069,742.713440 
	C360.634003,742.292542 359.686218,741.337158 361.241211,738.866089 
	C364.301575,734.002930 368.933502,731.767456 374.419098,730.950256 
	C384.028503,729.518555 393.680603,730.748962 403.309448,730.501343 
	C405.801544,730.437195 408.298737,730.587036 410.791809,730.541443 
	C416.691772,730.433594 422.353394,731.391541 424.632446,722.904663 
	C426.504150,715.934753 433.750275,715.706421 440.593414,716.038696 
	C441.945862,715.386169 442.960541,715.513306 443.947601,715.514771 
	C470.011780,715.552795 496.076111,715.421692 522.569580,715.823547 
	C523.453186,716.145020 523.907471,716.219666 524.686157,716.157593 
	C525.368347,715.669189 525.800964,715.521179 526.630188,715.685669 
	C527.533997,715.632751 528.105469,715.442322 528.846069,714.988953 
	C529.825562,713.677795 529.894958,712.451782 529.859375,710.887573 
	C529.858582,710.574341 529.780273,710.284363 529.661011,710.193115 
	C518.492859,708.615112 507.362579,709.667419 496.279022,709.087036 
	C492.862000,708.908081 490.105865,708.466736 488.458313,705.115356 
	C486.974396,702.096680 483.915253,701.485596 480.591522,700.567383 
	C412.378845,700.484741 344.627625,700.499329 276.876434,700.467224 
	C273.894043,700.465820 270.906738,701.008362 267.469147,700.246399 
z"/>
<path fill="#FAFBFC" opacity="1.000000" stroke="none" 
	d="
M457.377899,552.975403 
	C447.705505,532.703369 438.303101,512.843445 428.386993,491.898376 
	C424.273407,500.176422 420.629883,507.498383 416.995392,514.824768 
	C410.824463,527.263977 405.517883,540.134094 398.140686,552.291138 
	C397.351593,554.109070 395.965363,553.455200 394.959229,553.456604 
	C386.571655,553.468628 378.183441,553.585022 369.398560,553.123779 
	C367.791687,551.242554 369.120392,550.094177 369.721436,548.845276 
	C384.193573,518.774658 398.684296,488.713013 413.152588,458.640503 
	C418.252747,448.039673 423.302704,437.414642 428.718201,426.083893 
	C433.149902,435.559662 437.345367,444.620697 441.616302,453.645996 
	C456.182526,484.427063 470.785126,515.190918 485.335571,545.979431 
	C486.290802,548.000610 487.888245,549.870483 487.174316,552.639343 
	C477.216461,554.164307 467.423584,553.260498 457.377899,552.975403 
z"/>
<path fill="#FCFDFD" opacity="1.000000" stroke="none" 
	d="
M334.663818,417.347351 
	C310.820404,393.056122 324.659576,359.018372 349.583405,350.717560 
	C368.847321,344.301727 390.532959,353.689484 399.055817,371.992645 
	C407.619354,390.383240 400.985779,411.937378 383.405701,422.843781 
	C368.760223,431.929688 348.304169,429.711243 334.663818,417.347351 
z"/>
<path fill="#EFF5F8" opacity="1.000000" stroke="none" 
	d="
M715.215881,413.163116 
	C709.243530,411.737244 703.582581,413.069855 697.929932,413.562592 
	C694.668091,413.846954 691.646667,414.045105 688.295288,413.065308 
	C684.221680,411.874390 681.559387,415.254364 679.431458,418.315735 
	C677.245605,421.460449 674.890686,424.093689 670.250610,423.914581 
	C672.912170,419.739990 676.790039,416.342743 680.258240,412.567810 
	C681.754456,410.939331 683.365356,411.017029 685.175720,411.024628 
	C692.487427,411.055298 699.799622,411.023804 707.110840,411.095337 
	C709.841553,411.122040 710.887085,410.283234 709.430786,407.598022 
	C707.775513,404.545837 706.180115,401.461151 704.272888,398.192383 
	C702.351440,397.085052 701.139099,395.773651 700.069763,394.236938 
	C673.665039,356.288727 638.212952,330.878326 594.377258,316.273285 
	C558.158569,304.206024 521.748413,303.999756 484.761597,311.002686 
	C474.901306,312.869568 465.703491,316.706543 456.151489,319.468597 
	C455.022217,319.795135 453.889313,320.023682 452.315063,319.888245 
	C451.128937,320.155945 450.335968,320.461395 449.269928,320.937683 
	C444.973602,324.266205 440.664948,326.847198 435.183533,327.681458 
	C423.665924,332.788788 413.270172,339.265900 403.412994,346.614166 
	C400.940308,348.457458 399.087372,349.533539 396.617828,346.239197 
	C394.013550,342.765015 396.805084,341.950409 398.656555,340.589233 
	C429.930908,317.596741 464.815002,303.643188 503.349304,298.845001 
	C556.660095,292.206848 605.792480,304.149719 650.669739,333.121368 
	C678.035217,350.787842 700.087830,373.903107 716.105774,402.494385 
	C718.156921,406.155579 720.494568,409.796814 715.215881,413.163116 
z"/>
<path fill="#FAFBFC" opacity="1.000000" stroke="none" 
	d="
M217.230194,457.185364 
	C223.167938,455.046875 228.999863,455.179077 234.790878,455.538147 
	C237.477661,455.704773 239.009384,455.213806 239.971558,452.440033 
	C242.988525,443.742645 249.273819,438.577942 258.426025,438.178802 
	C266.954315,437.806885 272.759491,442.784760 276.370728,450.190521 
	C277.797302,453.116058 279.053925,454.335663 282.710938,453.450684 
	C288.878632,451.958191 295.012268,452.943268 300.135742,457.064270 
	C302.102264,458.646027 303.332977,458.603210 305.614838,457.436768 
	C319.422913,450.378174 337.660156,458.473389 341.184814,473.029266 
	C341.560120,474.579193 343.125275,476.758087 339.356750,477.106934 
	C336.811615,478.348053 334.415436,478.061340 332.127472,478.089661 
	C313.710144,478.317627 295.290955,477.780548 276.876678,478.092163 
	C273.319702,478.152313 271.599457,475.880829 270.104279,473.854309 
	C266.599915,469.104645 261.810547,468.146637 256.554962,468.045563 
	C242.956680,467.783966 229.355438,467.529419 215.761658,468.221161 
	C210.661728,468.480652 209.662994,467.242188 211.865570,462.405762 
	C212.580414,462.050446 212.821396,461.860077 212.973236,461.267853 
	C213.909454,459.363770 214.905838,457.800903 217.230194,457.185364 
z"/>
<path fill="#EFF5F8" opacity="1.000000" stroke="none" 
	d="
M782.365723,506.149719 
	C779.802307,503.695007 781.670288,502.130096 782.994629,500.837677 
	C785.426147,498.464600 788.378235,496.978607 791.919922,497.009674 
	C796.085510,497.046234 800.253418,496.982574 804.416260,497.103699 
	C806.468994,497.163422 807.453186,496.743134 808.234375,494.437714 
	C810.423645,487.976776 815.017883,483.599609 822.018311,483.215485 
	C828.606384,482.853973 833.457825,486.324005 836.234619,492.297363 
	C837.275757,494.536865 838.259705,494.894775 840.755005,494.341705 
	C845.848694,493.212769 851.101562,493.118958 855.500061,496.731812 
	C858.211304,498.958832 860.816101,501.398041 859.250122,505.769958 
	C858.076111,506.631561 857.054688,506.485931 856.069397,506.484436 
	C831.639587,506.447021 807.209595,506.579895 782.365723,506.149719 
z"/>
<path fill="#081731" opacity="1.000000" stroke="none" 
	d="
M452.192261,320.156952 
	C470.293427,312.196747 489.434784,307.832031 509.221375,305.810150 
	C535.097839,303.166046 560.636414,304.815552 585.614136,311.944214 
	C632.928772,325.447876 671.769226,351.365692 700.329102,391.898621 
	C701.569885,393.659607 702.684875,395.509369 703.922729,397.655945 
	C699.972778,399.501740 698.327148,398.118103 696.582886,394.033447 
	C694.744324,389.728027 691.365295,385.843689 687.565308,382.736084 
	C686.394531,381.778595 686.317505,380.438568 685.565063,379.413330 
	C680.382874,372.352509 674.473877,365.995148 667.304871,360.879883 
	C666.658875,360.418976 666.165955,359.743042 665.603333,359.165558 
	C662.437622,355.916107 659.929382,352.073639 654.525391,351.597656 
	C652.621155,351.429932 649.191833,350.610229 648.728333,347.155731 
	C648.584961,346.087311 647.424072,345.463654 646.498230,345.394928 
	C643.574280,345.177826 641.218750,344.940094 641.613342,340.833649 
	C641.769104,339.212555 639.397888,338.554901 637.789673,338.141602 
	C633.924133,337.148254 630.434204,335.895325 627.618652,332.595215 
	C625.841125,330.511719 623.127319,329.279175 619.898926,328.679413 
	C616.400513,328.029419 612.705139,326.762970 609.572998,324.268463 
	C605.337463,320.895172 599.634888,320.572266 594.709229,318.413544 
	C586.543152,314.834717 578.046936,311.413544 568.922607,310.430328 
	C565.768372,310.090485 562.723633,309.343872 559.822571,311.409027 
	C558.538513,312.323151 556.846252,312.338776 555.500488,311.628906 
	C547.283020,307.294250 538.371582,308.633759 529.870728,309.292328 
	C523.832947,309.760101 517.665649,310.018677 511.884186,309.473328 
	C502.887604,308.624695 494.773895,312.046631 486.156342,312.476074 
	C481.223328,312.721924 475.684937,312.746521 471.999451,315.867523 
	C468.203949,319.081696 463.773163,318.848114 459.772034,320.495270 
	C457.475067,321.440857 454.896332,321.385651 452.192261,320.156952 
z"/>
<path fill="#000B32" opacity="1.000000" stroke="none" 
	d="
M512.677734,691.688721 
	C489.525177,692.111633 466.070007,692.351990 442.614655,692.370483 
	C384.708008,692.416138 326.801270,692.359985 268.432617,692.248779 
	C269.531097,690.256653 271.688232,691.036987 273.584686,691.032288 
	C295.748230,690.977478 317.911987,691.004944 340.075653,690.977905 
	C341.815582,690.975769 343.650299,691.352173 345.315674,689.895935 
	C341.452728,689.175232 337.675934,688.344666 333.677063,688.571533 
	C328.737793,688.851929 323.573761,690.227417 319.138550,686.137024 
	C322.578705,685.897339 326.056641,686.143066 329.535126,686.151978 
	C380.423920,686.282288 431.312805,686.384094 482.201691,686.472900 
	C483.858063,686.475830 485.514832,686.268860 487.552856,686.068726 
	C489.758331,690.797363 493.452118,691.381958 498.084167,691.110718 
	C502.817139,690.833435 507.631012,690.507202 512.677734,691.688721 
z"/>
<path fill="#F8FAFB" opacity="1.000000" stroke="none" 
	d="
M815.939453,544.784790 
	C815.632202,544.899414 815.274170,544.842346 815.138794,544.963013 
	C814.083374,545.606323 813.070251,545.486511 812.081726,545.485596 
	C780.692200,545.456543 749.302612,545.558960 717.455566,545.246826 
	C716.997986,545.055664 716.696167,544.831299 716.510986,544.863647 
	C715.728455,544.686035 715.124817,544.495911 714.574524,544.003052 
	C713.071289,539.590637 715.167603,538.054321 718.851624,538.048584 
	C750.245117,537.999756 781.638794,537.981384 813.032166,538.064392 
	C815.945496,538.072144 819.036255,538.694641 817.179626,543.387024 
	C816.903198,544.098999 816.607239,544.415344 815.939453,544.784790 
z"/>
<path fill="#0A1F4F" opacity="1.000000" stroke="none" 
	d="
M583.500122,448.566376 
	C582.726257,446.428345 581.820557,444.614532 582.972778,442.372223 
	C591.093262,437.674347 595.492676,440.096985 595.485535,448.925140 
	C595.459778,480.654266 595.563965,512.383484 595.220825,544.553345 
	C593.809082,547.340576 595.730042,552.204346 589.776611,551.015625 
	C586.482666,548.837280 587.300781,545.611816 587.292725,542.753784 
	C587.211731,514.165527 587.255615,485.576965 587.241211,456.988495 
	C587.239624,453.820679 587.470520,450.547974 583.500122,448.566376 
z"/>
<path fill="#EFF5F8" opacity="1.000000" stroke="none" 
	d="
M312.956909,502.152344 
	C310.672302,521.961670 312.524902,540.960083 317.733521,559.683716 
	C318.168762,561.248352 318.844269,563.031616 318.468933,564.467834 
	C317.936462,566.505249 315.619171,567.275330 313.806305,567.754456 
	C311.235718,568.433838 311.517517,565.617554 311.171295,564.424316 
	C305.008240,543.183044 303.079468,521.581909 305.842102,499.573242 
	C306.334808,495.648254 306.679138,491.747589 307.814392,487.930481 
	C308.425140,485.876801 309.319550,484.511169 311.622223,485.183838 
	C313.916687,485.854065 315.283356,487.219788 314.784302,489.950562 
	C314.072754,493.844360 313.567047,497.775818 312.956909,502.152344 
z"/>
<path fill="#F8FAFB" opacity="1.000000" stroke="none" 
	d="
M547.357361,618.198853 
	C540.651611,619.484741 538.382141,624.478577 536.349365,629.658752 
	C535.747437,631.192505 535.538696,632.908630 534.780640,634.346497 
	C533.670410,636.452209 532.262695,636.257446 531.205139,634.209473 
	C530.838196,633.498657 530.778931,632.621948 530.616455,631.813599 
	C529.019531,623.866089 524.411865,618.907898 516.359497,617.236572 
	C514.902893,616.934326 512.739929,617.168030 512.973389,614.575989 
	C513.175354,612.333435 514.992126,612.323425 516.584045,611.942810 
	C523.613037,610.262024 528.384583,606.294189 530.110718,598.976685 
	C530.534607,597.179932 530.691040,594.354004 532.929871,594.192383 
	C535.784546,593.986328 535.590637,597.180908 536.203064,598.989502 
	C538.402710,605.485901 541.717163,610.604309 549.079651,611.976807 
	C550.673462,612.273865 553.087585,612.196045 553.162292,614.694885 
	C553.238770,617.248962 550.628845,616.869873 549.182983,617.744019 
	C548.779785,617.987732 548.220154,617.972717 547.357361,618.198853 
z"/>
<path fill="#83A5D3" opacity="1.000000" stroke="none" 
	d="
M583.098938,448.709473 
	C588.968140,447.148346 589.109375,447.203125 589.121704,453.006042 
	C589.190491,485.366394 589.221619,517.726807 589.334839,550.552368 
	C588.290161,553.523376 585.998535,553.003479 584.255981,552.518127 
	C582.415100,552.005310 583.223694,549.944214 583.220215,548.574219 
	C583.135803,515.435730 583.105957,482.297211 583.098938,448.709473 
z"/>
<path fill="#87AAD6" opacity="1.000000" stroke="none" 
	d="
M245.316559,727.987549 
	C242.653687,727.868958 239.647919,728.711914 239.622620,725.177246 
	C239.595139,721.336304 242.825027,722.083618 245.174606,722.080383 
	C275.617889,722.037964 306.061310,722.024231 336.504578,722.078247 
	C338.954865,722.082581 342.755463,721.108215 342.798676,724.895691 
	C342.840546,728.564026 339.122345,727.915527 336.606354,727.920166 
	C306.329376,727.975647 276.052307,727.974487 245.316559,727.987549 
z"/>
<path fill="#04102E" opacity="1.000000" stroke="none" 
	d="
M595.243042,544.991760 
	C595.002197,514.382751 594.994507,483.771393 594.993347,453.160034 
	C594.992920,441.780823 594.999817,441.780823 583.434631,442.012177 
	C571.880676,441.272400 560.819153,443.015594 549.707825,442.975006 
	C547.349976,442.966370 546.145630,443.533966 545.930359,446.266541 
	C545.371948,453.354370 546.013123,460.520020 545.629761,467.466827 
	C544.145569,494.361420 546.052307,521.263245 544.559937,548.124573 
	C544.545166,548.391296 544.194092,548.639404 543.672546,549.053772 
	C543.295471,513.595825 543.266235,477.980255 543.153198,442.364929 
	C543.145203,439.842438 543.768188,438.920074 546.483398,438.934113 
	C561.796509,439.013214 577.111511,438.967621 592.423706,438.782898 
	C595.464844,438.746155 596.281982,439.574127 596.268433,442.688721 
	C596.122498,476.478943 596.152649,510.269958 596.042358,544.518921 
	C595.949951,544.977051 595.478699,544.989441 595.243042,544.991760 
z"/>
<path fill="#F8FAFB" opacity="1.000000" stroke="none" 
	d="
M200.913727,549.452637 
	C202.836960,548.275513 204.482544,547.793457 206.652908,547.947632 
	C217.089523,547.040771 227.171371,547.650818 237.244476,547.536804 
	C246.175690,547.435669 255.109650,547.456848 264.509552,547.705078 
	C268.233032,548.743774 273.853973,545.998230 273.012207,553.533325 
	C271.339447,556.653809 268.624237,556.759705 265.951569,556.718994 
	C248.539230,556.453857 231.125748,556.483154 213.712997,556.542236 
	C210.893539,556.551819 208.114685,556.157959 205.288422,556.206543 
	C201.037323,556.279724 199.820709,554.434814 200.913727,549.452637 
z"/>
<path fill="#081731" opacity="1.000000" stroke="none" 
	d="
M189.694946,645.022583 
	C187.225723,647.767029 184.321854,650.477539 184.085922,655.101868 
	C196.555923,655.101868 208.850006,655.109192 221.144073,655.100586 
	C269.746857,655.066406 318.349670,655.054688 366.952271,654.938721 
	C370.916199,654.929260 374.140106,655.828674 376.388794,659.242004 
	C377.823334,661.419434 378.777985,663.647644 377.268646,666.198792 
	C375.832367,668.626282 374.009766,670.199219 370.901001,670.165344 
	C362.580383,670.074829 354.257629,670.183472 345.477844,670.118774 
	C349.612854,667.885437 354.467834,669.296143 359.193024,669.053040 
	C363.653290,668.823547 368.116913,669.296631 372.364227,667.187622 
	C373.822571,666.463562 376.140259,666.539673 375.730927,664.409241 
	C375.253082,661.921875 374.665466,658.885925 371.584076,658.161865 
	C363.138153,656.177002 354.509857,656.641907 346.008881,657.343567 
	C340.687134,657.782898 335.500183,658.337952 330.214478,657.288086 
	C328.443237,656.936340 326.572601,657.015564 324.747345,657.015137 
	C279.958618,657.003845 235.169907,657.010986 190.381180,657.000977 
	C188.556091,657.000549 186.666824,657.140381 184.919617,656.733398 
	C181.494080,655.935364 180.589401,652.937744 182.821136,650.352295 
	C184.675064,648.204529 185.498444,644.785706 189.694946,645.022583 
z"/>
<path fill="#83A5D3" opacity="1.000000" stroke="none" 
	d="
M215.676575,471.834595 
	C228.332413,472.168243 240.644714,472.223846 252.956848,472.307434 
	C254.950439,472.320984 256.947510,472.402069 258.935120,472.554626 
	C261.012238,472.714050 263.107361,473.071564 262.940674,475.869812 
	C262.763885,478.838135 260.325134,477.930969 258.737488,477.938538 
	C244.085312,478.008545 229.432632,477.974152 214.780090,477.955933 
	C210.784073,477.950989 206.788116,477.875061 202.792145,477.877258 
	C200.945999,477.878265 199.328598,477.465515 199.254059,475.307556 
	C199.178940,473.132538 200.861435,472.564240 202.634537,472.479614 
	C205.459244,472.344818 208.290451,472.345917 211.563477,472.177948 
	C213.004639,471.157349 214.203979,471.595154 215.676575,471.834595 
z"/>
<path fill="#87AAD6" opacity="1.000000" stroke="none" 
	d="
M723.125732,738.989685 
	C722.422424,741.919067 720.307251,741.943604 718.340210,741.955994 
	C711.024963,742.002014 703.707031,741.845764 696.394653,741.992493 
	C693.695679,742.046570 693.111938,740.944702 692.938416,738.503479 
	C692.137573,727.231628 689.134033,723.983765 677.825439,721.669617 
	C675.739075,721.242676 673.322083,721.156433 674.010986,717.892456 
	C674.597473,715.113525 676.655396,715.367615 678.678955,715.597168 
	C688.470947,716.707947 694.958191,722.236816 697.836853,731.364197 
	C699.142273,735.503235 701.136230,736.232300 704.857178,736.004333 
	C709.328796,735.730469 713.831543,735.940247 718.320435,735.980896 
	C720.343994,735.999207 722.340393,736.163208 723.125732,738.989685 
z"/>
<path fill="#8FB3DB" opacity="1.000000" stroke="none" 
	d="
M786.440918,563.709167 
	C769.556030,563.733643 753.112488,563.751282 736.669128,563.699158 
	C734.975220,563.693787 732.644836,564.488953 731.969666,562.094849 
	C731.164795,559.240906 732.387878,557.868835 735.570618,557.897034 
	C746.533020,557.994324 757.497253,557.891174 768.460754,557.873718 
	C774.440796,557.864258 780.421509,557.826111 786.400635,557.900879 
	C788.452637,557.926514 791.321838,557.264954 791.735291,560.154602 
	C792.230225,563.613892 788.973999,563.112854 786.440918,563.709167 
z"/>
<path fill="#081731" opacity="1.000000" stroke="none" 
	d="
M482.930573,411.096741 
	C483.198975,419.293610 483.388123,427.285767 483.252350,435.272400 
	C483.199341,438.390808 484.234741,439.173279 487.266296,439.081329 
	C495.751373,438.823853 504.253357,439.092926 512.735657,438.789551 
	C516.248291,438.663879 517.114441,439.659332 517.100220,443.164612 
	C516.955261,478.796692 517.005127,514.429504 516.921875,550.524292 
	C515.206177,547.280212 515.003540,543.347717 515.003784,539.380737 
	C515.005737,508.292633 515.009338,477.204529 515.001160,446.116425 
	C514.999573,440.097351 514.993652,440.803223 509.204407,441.226990 
	C500.965851,441.830109 492.661743,444.810181 484.302704,441.144897 
	C481.791901,440.043976 480.727600,438.551117 481.195526,436.308472 
	C482.507538,430.020447 482.121521,423.840515 481.123199,417.564575 
	C480.772064,415.357117 480.143921,412.609680 482.930573,411.096741 
z"/>
<path fill="#04102E" opacity="1.000000" stroke="none" 
	d="
M215.848068,471.849548 
	C214.946106,472.150604 213.872055,472.197876 212.403015,472.155762 
	C211.948517,471.102142 212.126007,469.994507 211.191299,469.376556 
	C207.278366,466.789581 208.667953,464.452118 211.835312,462.110657 
	C210.192932,465.680115 210.679825,467.085358 215.350601,467.000580 
	C229.822403,466.737976 244.302795,466.987946 258.779510,466.938416 
	C265.191162,466.916504 270.194794,469.226898 272.637451,475.356079 
	C273.709564,478.046326 275.614105,476.982819 277.153381,476.989105 
	C297.454620,477.071777 317.756287,477.045807 338.520325,477.123108 
	C336.665771,481.078156 332.807159,479.144196 329.767731,479.229706 
	C325.824280,479.340668 321.909821,478.763214 317.947144,479.768585 
	C313.321472,480.942230 308.746826,478.814392 304.129608,479.038452 
	C293.432495,479.557526 282.666046,477.735870 272.018524,479.983704 
	C271.685913,480.053925 270.904510,479.548462 270.920319,479.498901 
	C272.512787,474.504700 266.726257,474.583710 265.162628,471.465729 
	C263.603760,468.357239 258.465088,469.322601 255.062546,469.189301 
	C243.023285,468.717712 230.954224,468.968750 218.897049,469.041199 
	C217.447021,469.049896 215.651810,469.220032 214.633408,470.061646 
	C213.076813,471.348083 215.671326,470.797089 215.848068,471.849548 
z"/>
<path fill="#EFF5F8" opacity="1.000000" stroke="none" 
	d="
M317.426575,277.452209 
	C317.862762,277.165680 318.140686,277.064270 318.172180,277.115204 
	C321.266327,282.120789 324.285034,287.118622 330.747742,288.528625 
	C332.007355,288.803467 332.096863,290.360779 330.793365,291.237274 
	C329.844055,291.875610 328.823273,292.554688 327.737976,292.817322 
	C323.850891,293.758118 321.228149,295.697205 320.785248,300.017426 
	C320.659821,301.240997 319.949646,302.625549 318.365784,302.822479 
	C317.048370,302.986298 316.616425,301.707428 316.442627,300.929108 
	C315.290192,295.767853 311.979797,293.067657 306.958588,292.171875 
	C305.645508,291.937653 304.932892,291.339172 304.979980,289.866272 
	C305.027130,288.390564 306.110809,287.528839 307.097260,287.465668 
	C313.308868,287.067871 315.364014,282.561157 317.426575,277.452209 
z"/>
<path fill="#F8FAFB" opacity="1.000000" stroke="none" 
	d="
M751.455322,584.065735 
	C748.327698,578.557312 749.047241,577.050659 754.429443,577.029968 
	C765.252197,576.988403 776.075684,577.060730 786.898010,576.977234 
	C789.362061,576.958252 791.397522,577.608643 791.774597,580.129395 
	C792.185791,582.878174 790.158691,583.811401 787.373291,584.084229 
	C775.274536,584.856384 763.541504,584.394958 751.455322,584.065735 
z"/>
<path fill="#000319" opacity="1.000000" stroke="none" 
	d="
M604.317261,689.295166 
	C649.263672,688.980103 694.510803,688.941406 739.757935,688.925598 
	C782.848389,688.910522 825.938843,688.919312 869.488403,688.982849 
	C868.599487,690.486877 866.830078,689.968323 865.229370,689.968872 
	C779.835327,689.998779 694.441223,690.003296 609.047180,689.988647 
	C607.570740,689.988403 606.094360,689.723083 604.317261,689.295166 
z"/>
<path fill="#EFF5F8" opacity="1.000000" stroke="none" 
	d="
M758.779419,383.164551 
	C756.657837,380.199463 756.547119,379.787689 759.726379,378.932709 
	C763.677673,377.870178 766.053467,375.781982 766.890991,371.811005 
	C767.126831,370.692657 767.604431,369.367188 768.819763,369.204590 
	C770.093628,369.034149 770.740112,370.198425 771.190002,371.335022 
	C772.734253,375.236816 774.564575,378.816925 779.363220,379.576874 
	C780.246094,379.716736 781.091675,380.551483 781.009155,381.772186 
	C780.918945,383.108429 779.673096,383.317535 778.886902,383.490936 
	C774.714172,384.411041 772.492920,387.193726 771.203064,390.994415 
	C770.880188,391.945801 770.566589,392.986328 769.342346,393.018555 
	C767.952759,393.055084 767.234131,392.111572 767.063965,390.873535 
	C766.424561,386.221924 763.286560,384.252655 758.779419,383.164551 
z"/>
<path fill="#04102E" opacity="1.000000" stroke="none" 
	d="
M422.111908,742.625610 
	C457.572266,742.253784 493.153564,742.233887 528.734863,742.219360 
	C531.229004,742.218323 533.723083,742.256836 536.676575,742.356750 
	C536.569458,743.665955 535.516846,743.990295 534.276794,743.991760 
	C526.377991,744.000793 518.477478,743.923645 510.581238,744.070679 
	C507.295776,744.131836 504.014099,744.991882 500.739624,744.938721 
	C490.396423,744.770630 480.055481,744.393982 469.717499,743.997681 
	C462.084839,743.705078 454.546448,745.875488 446.925812,744.956848 
	C439.411407,744.051025 431.800873,745.989685 424.338531,744.019348 
	C423.529877,743.805847 422.704254,743.802673 422.111908,742.625610 
z"/>
<path fill="#081731" opacity="1.000000" stroke="none" 
	d="
M200.884918,549.106323 
	C200.344955,552.552856 200.714920,555.039307 205.195770,555.031494 
	C226.596603,554.994080 247.997574,555.030273 269.398407,554.995605 
	C270.338440,554.994080 271.277740,554.554443 272.596924,554.133911 
	C271.997742,558.170044 269.152985,559.620422 265.176117,558.811218 
	C259.233063,557.601929 253.404770,558.075867 247.421524,558.760437 
	C241.200989,559.472168 234.937759,557.729858 228.599625,557.907471 
	C219.710922,558.156494 210.781250,558.430054 201.923172,557.137268 
	C200.209259,556.887024 197.629410,557.455627 197.391190,555.096619 
	C197.157410,552.781555 197.383011,550.007507 200.884918,549.106323 
z"/>
<path fill="#E8F0F6" opacity="1.000000" stroke="none" 
	d="
M265.078491,364.246307 
	C266.125092,362.702942 265.823608,360.254852 268.152161,360.496368 
	C270.067352,360.695038 270.062073,362.645264 270.410095,363.978821 
	C271.292847,367.361145 273.152588,369.495697 276.716675,370.117096 
	C277.965729,370.334869 279.500793,370.783356 279.337006,372.543274 
	C279.219543,373.805084 278.197052,374.693634 277.013550,374.847565 
	C273.161255,375.348480 270.614929,377.130402 269.936462,381.165131 
	C269.716370,382.473938 268.778107,383.089905 267.413666,383.045929 
	C265.994751,383.000183 265.950897,381.863953 265.796143,380.943390 
	C265.124298,376.947083 262.450134,375.140503 258.794098,374.303131 
	C257.654907,374.042206 256.420746,373.622986 256.435120,372.198273 
	C256.448517,370.867065 257.518402,370.340851 258.673828,369.861542 
	C261.298645,368.772675 264.837708,368.700226 265.078491,364.246307 
z"/>
<path fill="#04102E" opacity="1.000000" stroke="none" 
	d="
M267.250305,700.317383 
	C329.880951,700.037659 392.750275,700.020142 455.619568,700.006348 
	C463.769501,700.004578 471.919464,700.022827 480.532227,700.107910 
	C481.105164,700.320618 481.215271,700.457214 481.156555,700.795776 
	C413.389984,701.000122 345.792236,701.029724 278.194702,700.928650 
	C274.643341,700.923340 270.981384,702.642639 267.250305,700.317383 
z"/>
<path fill="#E8F0F6" opacity="1.000000" stroke="none" 
	d="
M581.245117,790.897339 
	C578.114014,789.472778 578.853333,787.986328 581.028076,787.102051 
	C584.085938,785.858704 586.604187,784.408630 587.101746,780.751831 
	C587.229004,779.816284 587.949707,778.848267 589.101685,778.825867 
	C590.304688,778.802490 590.764343,779.779480 591.023743,780.773499 
	C591.928223,784.240051 593.643616,786.805420 597.595825,787.191956 
	C598.439819,787.274475 599.054016,787.984741 599.073547,788.942017 
	C599.096802,790.084106 598.584656,790.895508 597.386536,790.997253 
	C593.807373,791.300964 591.595886,793.126343 590.972778,796.702332 
	C590.780090,797.808105 590.240356,798.668823 589.179016,798.787354 
	C587.764648,798.945435 587.229248,797.929810 586.943054,796.656433 
	C586.288208,793.742493 584.903809,791.446350 581.245117,790.897339 
z"/>
<path fill="#87AAD6" opacity="1.000000" stroke="none" 
	d="
M273.340546,566.271851 
	C271.561462,566.224487 270.218689,566.295715 268.911499,566.112854 
	C267.242645,565.879333 266.962616,564.544983 266.909668,563.128479 
	C266.850555,561.546021 267.946991,561.194214 269.166748,561.056152 
	C275.129211,560.381104 281.107239,560.023438 287.102509,560.491882 
	C288.845337,560.627991 290.640533,561.250183 290.640900,563.282959 
	C290.641296,565.614319 288.782043,566.118286 286.774811,566.133972 
	C282.447327,566.167847 278.120026,566.228088 273.340546,566.271851 
z"/>
<path fill="#081731" opacity="1.000000" stroke="none" 
	d="
M481.156311,701.301025 
	C480.987671,700.997681 480.992676,700.590820 480.993866,700.387451 
	C485.792877,699.631104 489.752899,700.631958 490.755035,706.120605 
	C491.237305,708.762085 493.078674,708.000122 494.553528,708.006958 
	C504.044891,708.051025 513.536865,708.047241 523.028076,707.980652 
	C525.235291,707.965088 527.348511,708.030579 529.355103,709.785767 
	C522.089294,710.838806 514.572937,711.661011 507.157745,710.668457 
	C503.190308,710.137390 499.286713,710.118774 495.352112,710.026367 
	C491.154907,709.927734 487.397095,708.996887 485.487579,704.857605 
	C484.589569,702.910828 482.272644,703.224243 481.156311,701.301025 
z"/>
<path fill="#8FB3DB" opacity="1.000000" stroke="none" 
	d="
M774.583252,323.723389 
	C772.009888,323.437256 770.675171,322.437714 771.072449,320.093292 
	C771.400879,318.154968 772.961609,318.016785 774.523010,318.014191 
	C779.352356,318.006134 784.181763,318.001984 789.011108,318.008545 
	C791.152893,318.011475 792.732178,319.076874 792.628357,321.203400 
	C792.536682,323.081238 790.844910,323.932831 789.007324,323.928345 
	C784.345642,323.916931 779.684143,323.820282 774.583252,323.723389 
z"/>
<path fill="#04102E" opacity="1.000000" stroke="none" 
	d="
M367.670532,742.404907 
	C384.673096,742.188049 401.377228,742.148987 418.545349,742.190796 
	C418.614563,743.991516 417.262115,744.153564 415.913086,743.980713 
	C407.554871,742.909668 399.304199,745.054321 390.831757,744.380859 
	C382.826233,743.744568 374.535339,743.107239 366.385010,744.565186 
	C365.826843,744.665039 362.471069,746.543823 363.169739,742.562134 
	C364.072388,742.210815 364.884491,742.156372 365.987640,742.200439 
	C366.551239,742.748108 366.910980,742.860840 367.670532,742.404907 
z"/>
<path fill="#04102E" opacity="1.000000" stroke="none" 
	d="
M543.030273,742.786865 
	C564.695557,742.330872 586.394836,742.251648 608.549683,742.259766 
	C607.526611,744.877441 604.960815,745.295105 602.581177,744.836426 
	C595.975037,743.563049 589.485535,743.843201 582.875488,744.870850 
	C577.962952,745.634644 573.067261,743.236206 568.073181,744.023621 
	C561.252197,745.099060 554.331116,743.432373 547.500549,744.892273 
	C546.020386,745.208618 543.661377,745.945801 543.030273,742.786865 
z"/>
<path fill="#EFF5F8" opacity="1.000000" stroke="none" 
	d="
M666.991699,426.568237 
	C667.674255,427.705139 669.530579,428.885712 666.885376,430.309662 
	C665.136230,431.251251 664.062683,433.386688 662.559814,434.858032 
	C657.550293,439.762604 652.483582,444.608673 647.219360,449.738586 
	C645.879211,454.874329 642.575134,457.258972 637.466431,458.031616 
	C646.969666,447.616150 656.856873,437.192566 666.991699,426.568237 
z"/>
<path fill="#04102E" opacity="1.000000" stroke="none" 
	d="
M516.647217,552.058044 
	C524.944336,553.527832 533.035095,552.476318 541.535767,552.946289 
	C541.994873,553.208801 542.058533,553.414185 541.984436,553.535583 
	C540.678955,555.676392 543.027405,559.295288 540.574951,560.199951 
	C538.291138,561.042542 537.596191,557.297852 535.840332,555.982849 
	C533.575745,554.286865 531.494385,554.435425 530.147278,557.121582 
	C529.493591,558.425110 528.687317,559.341125 527.703064,557.886841 
	C523.974182,552.377197 520.935852,555.362061 517.450256,558.785095 
	C519.693848,555.808777 514.936035,554.672974 516.647217,552.058044 
z"/>
<path fill="#04102E" opacity="1.000000" stroke="none" 
	d="
M717.307129,545.335144 
	C749.354126,545.040283 781.710266,545.024902 814.534912,545.046631 
	C813.964539,546.217590 812.582642,546.000610 811.273438,546.000977 
	C780.864929,546.008789 750.456360,546.011353 720.047852,545.992737 
	C719.237244,545.992249 718.426758,545.746155 717.307129,545.335144 
z"/>
<path fill="#87AAD6" opacity="1.000000" stroke="none" 
	d="
M752.689453,317.897644 
	C755.379578,317.934998 757.887329,317.974396 757.631897,321.090790 
	C757.428467,323.573364 755.179382,324.001740 753.100830,324.006836 
	C750.275452,324.013763 747.437317,323.982330 744.628784,323.714142 
	C742.968750,323.555664 741.881531,322.368530 742.084900,320.595764 
	C742.251831,319.141754 743.237244,318.170197 744.759399,318.091095 
	C747.251953,317.961639 749.750732,317.950897 752.689453,317.897644 
z"/>
<path fill="#04102E" opacity="1.000000" stroke="none" 
	d="
M616.138489,742.708740 
	C629.395325,742.264709 642.795044,742.178345 656.602600,742.068115 
	C657.178528,744.538513 655.744751,745.286499 653.602600,744.961121 
	C651.330383,744.615845 648.964172,745.100159 646.850830,744.808472 
	C637.219482,743.479431 627.557007,744.673584 617.943848,743.929382 
	C617.370789,743.884949 616.834656,743.365112 616.138489,742.708740 
z"/>
<path fill="#E8F0F6" opacity="1.000000" stroke="none" 
	d="
M672.617676,286.531097 
	C674.775208,288.903778 675.951538,291.085571 673.767639,293.782501 
	C672.257568,295.647186 670.445374,296.647675 668.154236,295.695831 
	C665.791077,294.714081 664.640198,292.788696 664.978088,290.149200 
	C665.313904,287.526154 666.716614,285.889648 669.440613,285.765930 
	C670.395874,285.722534 671.370605,286.109894 672.617676,286.531097 
z"/>
<path fill="#E8F0F6" opacity="1.000000" stroke="none" 
	d="
M615.054932,369.104706 
	C611.498047,364.839569 612.312866,360.566437 616.458862,359.972382 
	C618.599487,359.665710 620.395325,360.374054 621.518982,362.277740 
	C622.592041,364.095703 622.892639,366.145203 621.435486,367.784882 
	C619.875183,369.540619 617.905457,370.846893 615.054932,369.104706 
z"/>
<path fill="#04102E" opacity="1.000000" stroke="none" 
	d="
M522.712280,715.765381 
	C495.982941,716.984375 468.965973,715.937500 441.491699,716.022705 
	C442.059113,714.768555 443.447937,715.009827 444.752411,715.009521 
	C469.838440,715.003296 494.924469,715.004028 520.010498,715.029724 
	C520.815674,715.030579 521.620544,715.310486 522.712280,715.765381 
z"/>
<path fill="#E8F0F6" opacity="1.000000" stroke="none" 
	d="
M457.905640,778.703369 
	C461.866425,777.215210 464.026794,779.136719 464.932861,782.266113 
	C465.763336,785.134277 463.809387,787.031982 461.240112,787.815979 
	C458.324890,788.705505 456.556274,786.915405 455.474091,784.437012 
	C454.397675,781.971802 455.997284,780.427795 457.905640,778.703369 
z"/>
<path fill="#000319" opacity="1.000000" stroke="none" 
	d="
M782.231689,506.197937 
	C807.315308,505.878815 832.679077,505.880249 858.503662,505.945496 
	C857.977051,507.240631 856.575867,506.993561 855.274963,506.994141 
	C831.822876,507.004669 808.370850,507.004822 784.918762,506.978516 
	C784.116272,506.977631 783.314087,506.678558 782.231689,506.197937 
z"/>
<path fill="#E8F0F6" opacity="1.000000" stroke="none" 
	d="
M488.154816,339.392120 
	C491.040253,337.135895 493.181946,338.190338 494.762329,340.461792 
	C496.052399,342.316010 495.539581,344.209351 493.898315,345.797424 
	C492.399048,347.248169 490.540558,347.703156 488.947083,346.553711 
	C486.479675,344.773987 485.961151,342.331207 488.154816,339.392120 
z"/>
<path fill="#E8F0F6" opacity="1.000000" stroke="none" 
	d="
M465.726868,605.827515 
	C465.935791,602.868652 467.133606,601.027527 469.931854,601.004333 
	C472.240204,600.985168 473.458618,602.653076 474.000885,604.668640 
	C474.528839,606.631104 473.785828,608.353699 471.988464,609.280212 
	C468.629913,611.011475 466.764282,609.389648 465.726868,605.827515 
z"/>
<path fill="#E8F0F6" opacity="1.000000" stroke="none" 
	d="
M408.876129,718.513062 
	C409.420166,718.387085 409.585632,718.325256 409.743713,718.340393 
	C411.894806,718.545898 414.387390,717.072083 416.106262,719.311096 
	C416.968842,720.434753 416.623962,722.250122 415.822388,723.021667 
	C413.730347,725.034973 410.594696,724.519775 408.479645,723.794922 
	C405.652832,722.826172 405.777954,720.368225 408.876129,718.513062 
z"/>
<path fill="#E8F0F6" opacity="1.000000" stroke="none" 
	d="
M754.341064,743.136475 
	C751.738831,745.004639 749.643433,744.601013 748.283875,742.196350 
	C747.223511,740.320923 747.625061,738.387695 749.332703,736.860962 
	C750.881042,735.476562 752.383179,735.945374 753.791687,737.005798 
	C756.001099,738.669006 756.395996,740.653992 754.341064,743.136475 
z"/>
<path fill="#EFF5F8" opacity="1.000000" stroke="none" 
	d="
M273.998993,744.276855 
	C274.196014,746.677856 273.449646,748.008118 271.308258,747.941101 
	C269.044678,747.870300 266.319366,748.986267 264.658783,747.115723 
	C263.370270,745.664246 263.215363,742.829773 265.596985,742.136536 
	C268.407593,741.318420 271.818939,740.269897 273.998993,744.276855 
z"/>
<path fill="#04102E" opacity="1.000000" stroke="none" 
	d="
M264.656708,547.599426 
	C245.967270,547.912231 226.957626,547.965088 207.486420,547.943726 
	C207.607742,547.593872 208.191391,547.075989 208.773468,547.077698 
	C227.294586,547.133911 245.815536,547.240479 264.656708,547.599426 
z"/>
<path fill="#E8F0F6" opacity="1.000000" stroke="none" 
	d="
M231.625092,510.257141 
	C228.248550,510.606476 226.478516,509.137054 226.518433,506.133087 
	C226.544296,504.186340 227.853989,502.598236 229.811783,502.211487 
	C231.342422,501.909149 232.937897,502.757965 233.609009,504.126099 
	C234.742310,506.436523 234.507156,508.662567 231.625092,510.257141 
z"/>
<path fill="#E8F0F6" opacity="1.000000" stroke="none" 
	d="
M826.430847,598.659668 
	C827.336548,601.801941 825.878845,603.370422 823.416748,604.057983 
	C821.394531,604.622620 819.850403,603.591797 819.108521,601.716248 
	C818.380371,599.875671 818.766113,598.155090 820.462097,596.925842 
	C822.919617,595.144592 824.693115,596.279724 826.430847,598.659668 
z"/>
<path fill="#83A5D3" opacity="1.000000" stroke="none" 
	d="
M623.478455,253.156097 
	C626.346436,254.789886 627.080566,256.857971 625.578125,259.470581 
	C624.648010,261.087799 623.155212,261.682648 621.402649,260.988831 
	C619.263550,260.142029 618.562744,258.311035 618.918152,256.206024 
	C619.296753,253.963760 620.803284,252.888763 623.478455,253.156097 
z"/>
<path fill="#081731" opacity="1.000000" stroke="none" 
	d="
M435.070068,327.929321 
	C439.311920,325.426697 443.792847,323.261566 448.635284,321.102478 
	C448.667023,327.152618 443.625275,329.782928 435.070068,327.929321 
z"/>
<path fill="#87AAD6" opacity="1.000000" stroke="none" 
	d="
M754.382202,475.327820 
	C757.828369,474.660645 760.071899,475.491852 760.023560,479.055511 
	C759.986145,481.815491 757.911682,483.012421 755.663147,482.377411 
	C751.566528,481.220490 752.177185,478.397034 754.382202,475.327820 
z"/>
<path fill="#83A5D3" opacity="1.000000" stroke="none" 
	d="
M380.957977,256.336914 
	C381.345459,259.061157 380.925049,261.056641 378.214691,261.516357 
	C376.648468,261.782013 375.410522,261.139923 374.766663,259.505920 
	C374.013733,257.595215 374.303528,255.816025 375.898895,254.702362 
	C377.798157,253.376556 379.607819,253.938354 380.957977,256.336914 
z"/>
<path fill="#83A5D3" opacity="1.000000" stroke="none" 
	d="
M829.231934,722.283325 
	C827.940796,724.263672 826.532593,725.334534 824.557373,724.039917 
	C822.992249,723.014099 822.593750,721.360046 823.288330,719.667908 
	C823.893738,718.192993 825.202820,717.213745 826.808899,717.602051 
	C828.982300,718.127380 830.259766,719.498108 829.231934,722.283325 
z"/>
<path fill="#EFF5F8" opacity="1.000000" stroke="none" 
	d="
M632.541382,462.953583 
	C632.048279,469.099060 627.466675,474.515930 621.312378,475.970917 
	C624.172424,471.218811 628.458801,467.380585 632.541382,462.953583 
z"/>
<path fill="#E8F0F6" opacity="1.000000" stroke="none" 
	d="
M421.390106,266.719971 
	C421.307495,263.789581 421.988525,261.623413 425.219299,262.102264 
	C426.815491,262.338898 427.884216,263.437622 427.971802,265.178192 
	C428.052612,266.785675 427.546844,268.310638 425.991669,268.845856 
	C424.196869,269.463562 422.315826,269.468445 421.390106,266.719971 
z"/>
<path fill="#000319" opacity="1.000000" stroke="none" 
	d="
M751.333496,584.075439 
	C762.755615,583.827026 774.412109,583.924438 786.534180,584.091553 
	C784.058899,585.866333 780.840332,584.986206 777.785095,584.941040 
	C769.046448,584.811646 760.281921,585.716125 751.333496,584.075439 
z"/>
<path fill="#455E8C" opacity="1.000000" stroke="none" 
	d="
M511.972046,786.161560 
	C509.061157,785.974487 508.186157,784.455933 508.580261,782.142761 
	C508.823700,780.713806 509.697479,779.826355 511.300873,779.830078 
	C512.699463,779.833374 513.990784,780.051331 514.568787,781.497192 
	C515.481567,783.780396 514.624329,785.302795 511.972046,786.161560 
z"/>
<path fill="#83A5D3" opacity="1.000000" stroke="none" 
	d="
M527.322388,266.110229 
	C527.121460,268.375763 526.701172,270.082214 524.139221,269.838562 
	C522.766785,269.708008 522.097534,268.945190 521.754944,267.732422 
	C521.358276,266.328094 521.618225,264.844788 522.864929,264.288513 
	C524.522949,263.548676 526.465820,263.278748 527.322388,266.110229 
z"/>
<path fill="#455E8C" opacity="1.000000" stroke="none" 
	d="
M216.148407,597.224731 
	C219.230667,596.687805 220.741226,597.806641 220.321732,600.597595 
	C220.023529,602.581543 218.300522,603.488647 216.621506,602.727417 
	C214.032303,601.553528 214.560516,599.410706 216.148407,597.224731 
z"/>
<path fill="#000319" opacity="1.000000" stroke="none" 
	d="
M670.201965,553.117310 
	C679.963379,552.805481 690.003845,552.820435 700.495850,552.947632 
	C698.403931,554.943115 695.477478,553.987183 692.769836,553.941711 
	C685.340820,553.816956 677.882996,554.695435 670.201965,553.117310 
z"/>
<path fill="#000319" opacity="1.000000" stroke="none" 
	d="
M457.319580,552.931641 
	C466.754974,552.645142 476.402069,552.726929 486.511139,552.853271 
	C485.896667,554.386047 484.281097,554.050598 482.842712,553.984497 
	C474.409302,553.596985 465.929688,554.904602 457.319580,552.931641 
z"/>
<path fill="#000319" opacity="1.000000" stroke="none" 
	d="
M369.269073,553.155640 
	C378.323486,552.651733 387.645966,552.472290 397.421204,552.385132 
	C397.531921,553.288330 396.961761,553.914185 396.060028,553.901367 
	C387.218872,553.775940 378.361389,554.636536 369.269073,553.155640 
z"/>
<path fill="#455E8C" opacity="1.000000" stroke="none" 
	d="
M858.155273,636.615234 
	C857.779846,634.046143 858.010864,632.017822 860.886780,632.254333 
	C862.743896,632.407104 863.350708,633.990784 862.841492,635.588379 
	C862.064758,638.025085 860.412720,638.492126 858.155273,636.615234 
z"/>
<path fill="#455E8C" opacity="1.000000" stroke="none" 
	d="
M854.682983,533.730591 
	C853.326721,536.006287 851.823486,536.398865 850.512146,534.267517 
	C849.824768,533.150085 849.886230,531.436646 851.281677,530.891174 
	C853.349365,530.083008 854.676453,531.056763 854.682983,533.730591 
z"/>
<path fill="#455E8C" opacity="1.000000" stroke="none" 
	d="
M670.952637,771.866821 
	C670.131104,774.205688 668.742554,775.467834 666.810913,773.972412 
	C665.279297,772.786621 665.493408,770.739319 667.017639,769.658691 
	C668.968140,768.275635 670.452454,769.126526 670.952637,771.866821 
z"/>
<path fill="#0A1F4F" opacity="1.000000" stroke="none" 
	d="
M224.292435,430.884460 
	C224.504486,428.347198 225.296082,426.601990 227.966858,427.194244 
	C229.207275,427.469360 230.051178,428.357025 229.524521,429.754150 
	C228.506927,432.453613 226.637054,432.534576 224.292435,430.884460 
z"/>
<path fill="#455E8C" opacity="1.000000" stroke="none" 
	d="
M554.760742,339.986755 
	C554.385132,342.656128 552.845886,343.624817 550.903076,342.722717 
	C549.361084,342.006744 549.454163,339.903656 550.434631,338.882721 
	C551.828979,337.430634 553.627502,337.410767 554.760742,339.986755 
z"/>
<path fill="#455E8C" opacity="1.000000" stroke="none" 
	d="
M693.240234,477.541321 
	C692.988831,475.333374 693.255615,473.765106 695.688477,474.178772 
	C696.991760,474.400391 697.801392,475.309967 697.327637,476.649017 
	C696.603699,478.694946 695.364563,479.711334 693.240234,477.541321 
z"/>
<path fill="#455E8C" opacity="1.000000" stroke="none" 
	d="
M722.253479,437.350159 
	C723.274475,435.298767 724.404602,434.276031 725.926270,436.392151 
	C726.575317,437.294708 727.348572,438.673370 726.029358,439.370667 
	C724.398743,440.232605 722.450073,440.595703 722.253479,437.350159 
z"/>
<path fill="#000319" opacity="1.000000" stroke="none" 
	d="
M597.254761,553.184814 
	C603.667908,552.864990 610.359497,552.863281 617.510498,552.940735 
	C611.199036,554.928528 604.361938,554.040894 597.254761,553.184814 
z"/>
<path fill="#455E8C" opacity="1.000000" stroke="none" 
	d="
M358.887726,785.845520 
	C358.207367,788.205261 356.790253,788.441833 355.610199,787.084473 
	C354.670776,786.004089 354.480957,784.134399 356.157349,783.359497 
	C357.910553,782.549133 358.892059,783.571594 358.887726,785.845520 
z"/>
<path fill="#EFF5F8" opacity="1.000000" stroke="none" 
	d="
M636.741638,458.209167 
	C637.278564,460.696747 636.421326,462.510742 633.183105,462.859344 
	C634.017578,461.345764 635.229797,459.839142 636.741638,458.209167 
z"/>
<path fill="#04102E" opacity="1.000000" stroke="none" 
	d="
M217.159424,457.102692 
	C216.257156,458.338623 214.939560,459.551575 213.317001,460.896240 
	C212.903732,458.433624 213.872665,456.857513 217.159424,457.102692 
z"/>
<path fill="#081731" opacity="1.000000" stroke="none" 
	d="
M529.628540,710.941406 
	C531.423218,712.017456 530.569397,713.279419 529.288635,714.627930 
	C529.142822,713.586853 529.270691,712.447632 529.628540,710.941406 
z"/>
<path fill="#04102E" opacity="1.000000" stroke="none" 
	d="
M714.389221,543.853760 
	C715.115662,543.928772 715.599792,544.168396 716.204834,544.652039 
	C715.588745,544.630127 714.285400,545.770447 714.389221,543.853760 
z"/>
<path fill="#04102E" opacity="1.000000" stroke="none" 
	d="
M526.795898,715.629517 
	C526.532043,715.932678 526.101624,716.042114 525.340820,716.086304 
	C525.373291,715.336609 525.859009,714.992676 526.795898,715.629517 
z"/>
<path fill="#EFF5F8" opacity="1.000000" stroke="none" 
	d="
M668.326050,426.981079 
	C668.454285,426.924927 668.607971,426.885071 668.546509,426.949707 
	C668.331421,427.054138 668.351501,426.997406 668.326050,426.981079 
z"/>
<path fill="#EFF5F8" opacity="1.000000" stroke="none" 
	d="
M669.604858,423.930878 
	C669.661621,424.157166 669.425659,424.492035 668.893555,424.941528 
	C668.835693,424.717285 669.073853,424.378357 669.604858,423.930878 
z"/>
<path fill="#EFF5F8" opacity="1.000000" stroke="none" 
	d="
M713.312500,415.020813 
	C713.247803,414.812012 713.451111,414.510956 713.906433,414.092743 
	C713.965820,414.293243 713.773132,414.610901 713.312500,415.020813 
z"/>
<path fill="#04102E" opacity="1.000000" stroke="none" 
	d="
M815.942688,544.794067 
	C815.927490,544.590820 816.222778,544.282288 816.830933,543.851685 
	C816.846924,544.049377 816.550110,544.369080 815.942688,544.794067 
z"/>
<path fill="#04102E" opacity="1.000000" stroke="none" 
	d="
M543.524902,550.925598 
	C543.227051,550.811951 543.185181,550.646667 543.229248,550.240601 
	C543.648560,550.196289 544.454102,550.141296 543.524902,550.925598 
z"/>
<path fill="#0A1F4F" opacity="1.000000" stroke="none" 
	d="
M356.349823,596.910767 
	C355.966949,595.521790 355.660004,594.343323 355.826202,593.235779 
	C356.180145,590.876709 357.849426,589.855835 360.096313,590.089355 
	C362.437042,590.332642 363.714844,592.059265 363.618988,594.197754 
	C363.526978,596.250977 362.390747,597.975708 359.901672,598.089233 
	C358.700928,598.143982 357.587891,597.951965 356.349823,596.910767 
z"/>
<path fill="#081731" opacity="1.000000" stroke="none" 
	d="
M752.918518,641.579773 
	C750.382507,643.405701 748.429199,642.675720 747.272949,640.576904 
	C746.510925,639.193665 746.543152,637.302734 747.853882,635.984558 
	C749.341614,634.488220 751.214600,634.513367 752.753540,635.722290 
	C754.750366,637.290833 754.669128,639.310486 752.918518,641.579773 
z"/>
<path fill="#83A5D3" opacity="1.000000" stroke="none" 
	d="
M705.812134,631.178345 
	C706.384521,628.609985 707.698486,627.616577 709.825745,628.837952 
	C711.180603,629.615967 711.444641,631.205627 710.326904,632.247986 
	C708.740112,633.727722 707.026733,633.525452 705.812134,631.178345 
z"/>
<path fill="#83A5D3" opacity="1.000000" stroke="none" 
	d="
M746.461182,669.550659 
	C744.240845,670.233643 742.844177,669.945923 742.986145,667.524231 
	C743.062012,666.229919 743.493591,665.161316 745.039673,665.508911 
	C747.166504,665.987000 747.382507,667.489319 746.461182,669.550659 
z"/>
<path fill="#EFF5F8" opacity="1.000000" stroke="none" 
	d="
M647.052734,450.127380 
	C647.113037,450.131561 647.226074,450.263092 647.339111,450.394653 
	C647.261230,450.348022 647.183411,450.301392 647.052734,450.127380 
z"/>
<path fill="#EFF5F8" opacity="1.000000" stroke="none" 
	d="
M709.473755,414.457703 
	C709.521667,414.430634 709.425781,414.484772 709.473755,414.457703 
z"/>
<path fill="#081731" opacity="1.000000" stroke="none" 
	d="
M569.380127,707.786621 
	C570.658691,710.735107 569.808899,712.792969 567.308044,713.817444 
	C565.446533,714.580078 563.693787,713.806458 562.589661,712.029907 
	C561.433105,710.169067 561.988098,708.467773 563.395813,707.065247 
	C565.396973,705.071472 567.308899,706.012878 569.380127,707.786621 
z"/>
<path fill="#041741" opacity="1.000000" stroke="none" 
	d="
M367.690186,742.132690 
	C367.587219,742.360413 367.205505,742.493713 366.551270,742.463013 
	C366.656281,742.212097 367.033844,742.125183 367.690186,742.132690 
z"/>
</svg>